# xmcd
#
# Track frame offsets:
#	150
#	32189
#	63466
#	88440
#	110793
#	136026
#	158312
#	182373
#
# Disc length: 2866 seconds
#
# Revision: 24
# Processed by: cddbd v1.5.2PL0 Copyright (c) Steve Scherf et al.
# Submitted via: Jack! The Knife 20 Magnifico
#
DISCID=630b3008
DTITLE=Coroner - Mental Vortex
DYEAR=1991
DGENRE=Metal
TTITLE0=Divine Step (Conspectu Mortis)
TTITLE1=Son Of Lilith
TTITLE2=Semtex Revolution
TTITLE3=Sirens
TTITLE4=Metamorphosis
TTITLE5=Pale Sister
TTITLE6=About Life
TTITLE7=I Want You (She's So Heavy)
EXTD=Tom Morris
EXTT0=Baron, Royce, Marky
EXTT1=Baron, Royce, Marky
EXTT2=Baron, Marky
EXTT3=Baron, Royce, Marky
EXTT4=Baron, Royce, Marky
EXTT5=Baron, Marky
EXTT6=Baron, Marky
EXTT7=Lennon, McCartney
PLAYORDER=
